<svg xmlns="http://www.w3.org/2000/svg" xmlns:xlink="http://www.w3.org/1999/xlink"><polygon points="0,200 1,100 2,99 3,100 4,101 5,102 6,103 7,104 8,105 9,104 10,103 11,102 12,103 13,104 14,103 15,104 16,105 17,106 18,105 19,104 20,103 21,102 22,101 23,102 24,103 25,102 26,103 27,104 28,105 29,104 30,105 31,106 32,107 33,108 34,107 35,108 36,109 37,110 38,111 39,112 40,113 41,112 42,111 43,112 44,113 45,112 46,111 47,110 48,111 49,112 50,113 51,112 52,111 53,112 54,113 55,112 56,111 57,112 58,113 59,112 60,113 61,112 62,113 63,112 64,113 65,114 66,115 67,114 68,115 69,116 70,117 71,116 72,115 73,114 74,113 75,114 76,115 77,114 78,113 79,114 80,115 81,116 82,117 83,118 84,117 85,116 86,117 87,118 88,117 89,118 90,119 91,120 92,121 93,122 94,121 95,120 96,119 97,118 98,119 99,120 100,121 101,122 102,121 103,120 104,121 105,120 106,119 107,118 108,119 109,120 110,119 111,120 112,119 113,118 114,117 115,118 116,117 117,118 118,117 119,116 120,117 121,118 122,117 123,116 124,117 125,118 126,117 127,118 128,119 129,118 130,117 131,116 132,117 133,116 134,115 135,116 136,115 137,114 138,115 139,114 140,115 141,114 142,115 143,116 144,117 145,116 146,115 147,116 148,117 149,118 150,117 151,118 152,117 153,116 154,117 155,116 156,115 157,114 158,115 159,114 160,113 161,112 162,111 163,112 164,111 165,112 166,113 167,114 168,115 169,116 170,115 171,116 172,115 173,116 174,115 175,116 176,117 177,116 178,115 179,114 180,115 181,116 182,115 183,116 184,115 185,114 186,113 187,112 188,113 189,112 190,111 191,112 192,113 193,112 194,111 195,110 196,111 197,110 198,109 199,108 200,109 201,110 202,111 203,110 204,111 205,112 206,113 207,114 208,113 209,114 210,113 211,112 212,113 213,114 214,113 215,114 216,115 217,114 218,115 219,114 220,113 221,114 222,115 223,114 224,115 225,114 226,115 227,114 228,113 229,114 230,113 231,114 232,113 233,112 234,111 235,110 236,111 237,112 238,113 239,112 240,111 241,112 242,111 243,112 244,111 245,112 246,113 247,114 248,115 249,114 250,113 251,114 252,115 253,114 254,115 255,114 256,115 257,116 258,117 259,116 260,115 261,116 262,115 263,114 264,113 265,112 266,111 267,112 268,111 269,112 270,111 271,110 272,109 273,108 274,109 275,108 276,109 277,108 278,109 279,110 280,111 281,110 282,109 283,110 284,111 285,112 286,113 287,112 288,113 289,112 290,111 291,110 292,111 293,110 294,111 295,110 296,111 297,112 298,111 299,112 300,111 301,112 302,111 303,112 304,111 305,112 306,111 307,110 308,111 309,112 310,111 311,110 312,109 313,110 314,109 315,108 316,109 317,108 318,109 319,108 320,107 321,108 322,109 323,110 324,111 325,110 326,109 327,108 328,109 329,110 330,109 331,110 332,109 333,108 334,107 335,108 336,109 337,110 338,111 339,112 340,113 341,112 342,111 343,112 344,111 345,110 346,111 347,112 348,113 349,112 350,113 351,114 352,113 353,114 354,115 355,114 356,113 357,114 358,113 359,112 360,111 361,112 362,111 363,112 364,111 365,112 366,113 367,112 368,111 369,112 370,113 371,114 372,113 373,112 374,113 375,112 376,113 377,114 378,115 379,116 380,117 381,116 382,115 383,114 384,115 385,116 386,115 387,116 388,115 389,116 390,117 391,116 392,117 393,118 394,119 395,118 396,119 397,118 398,117 399,116 400,117 400,200 " style="fill:rgb(244,7,0);stroke:rgb(144,0,0)"></polygon><polygon points="0,200 1,100 2,101 3,102 4,103 5,102 6,101 7,100 8,99 9,98 10,97 11,96 12,97 13,96 14,97 15,96 16,95 17,96 18,95 19,96 20,97 21,96 22,95 23,94 24,95 25,94 26,95 27,94 28,93 29,92 30,93 31,92 32,91 33,92 34,93 35,94 36,95 37,94 38,93 39,94 40,93 41,94 42,95 43,94 44,93 45,92 46,93 47,92 48,93 49,92 50,93 51,94 52,95 53,94 54,95 55,96 56,95 57,96 58,97 59,96 60,97 61,96 62,97 63,98 64,97 65,96 66,97 67,98 68,99 69,100 70,99 71,98 72,99 73,98 74,99 75,100 76,101 77,100 78,101 79,100 80,101 81,102 82,101 83,100 84,99 85,100 86,99 87,98 88,99 89,98 90,99 91,100 92,101 93,100 94,99 95,100 96,101 97,100 98,99 99,98 100,99 101,100 102,99 103,98 104,99 105,98 106,97 107,96 108,97 109,96 110,95 111,96 112,97 113,96 114,95 115,94 116,93 117,94 118,95 119,94 120,95 121,96 122,97 123,98 124,97 125,96 126,95 127,94 128,93 129,94 130,93 131,92 132,91 133,92 134,93 135,94 136,93 137,94 138,93 139,92 140,93 141,92 142,93 143,92 144,93 145,92 146,93 147,94 148,95 149,94 150,95 151,94 152,93 153,94 154,95 155,96 156,97 157,96 158,95 159,96 160,95 161,96 162,97 163,98 164,97 165,96 166,97 167,98 168,99 169,100 170,101 171,100 172,101 173,100 174,99 175,100 176,99 177,98 178,99 179,98 180,99 181,98 182,97 183,96 184,95 185,96 186,95 187,96 188,97 189,98 190,99 191,98 192,99 193,100 194,99 195,100 196,101 197,100 198,99 199,98 200,97 201,98 202,99 203,100 204,99 205,100 206,99 207,98 208,99 209,98 210,97 211,96 212,97 213,98 214,99 215,98 216,99 217,100 218,99 219,100 220,99 221,100 222,101 223,102 224,103 225,102 226,101 227,100 228,99 229,100 230,101 231,100 232,101 233,100 234,101 235,102 236,101 237,100 238,99 239,98 240,97 241,98 242,97 243,98 244,99 245,98 246,99 247,100 248,101 249,100 250,101 251,100 252,99 253,98 254,97 255,98 256,99 257,98 258,99 259,98 260,97 261,96 262,97 263,98 264,99 265,98 266,99 267,98 268,99 269,100 270,99 271,98 272,99 273,98 274,99 275,100 276,99 277,100 278,101 279,100 280,99 281,100 282,101 283,102 284,101 285,100 286,101 287,102 288,101 289,102 290,103 291,102 292,103 293,102 294,101 295,100 296,101 297,102 298,103 299,104 300,105 301,106 302,105 303,104 304,103 305,104 306,103 307,104 308,105 309,106 310,105 311,106 312,107 313,106 314,105 315,104 316,103 317,104 318,105 319,106 320,105 321,104 322,105 323,104 324,105 325,104 326,103 327,104 328,105 329,104 330,103 331,102 332,101 333,100 334,99 335,98 336,97 337,96 338,97 339,96 340,95 341,94 342,95 343,96 344,97 345,98 346,97 347,96 348,97 349,98 350,97 351,96 352,97 353,96 354,95 355,96 356,97 357,98 358,99 359,100 360,99 361,98 362,99 363,98 364,97 365,96 366,97 367,98 368,97 369,98 370,99 371,98 372,99 373,98 374,97 375,96 376,95 377,96 378,95 379,96 380,95 381,96 382,95 383,96 384,95 385,96 386,95 387,96 388,95 389,94 390,95 391,96 392,95 393,94 394,93 395,92 396,91 397,90 398,89 399,90 400,89 400,200 " style="fill:rgb(139,57,138);stroke:rgb(39,0,38)"></polygon><polygon points="0,200 1,100 2,101 3,100 4,99 5,98 6,97 7,98 8,99 9,100 10,99 11,98 12,99 13,98 14,99 15,100 16,99 17,98 18,97 19,96 20,97 21,98 22,99 23,98 24,97 25,96 26,97 27,98 28,99 29,100 30,101 31,102 32,101 33,100 34,101 35,100 36,99 37,98 38,99 39,100 40,101 41,100 42,99 43,100 44,101 45,102 46,103 47,102 48,101 49,102 50,103 51,104 52,105 53,104 54,103 55,104 56,103 57,102 58,103 59,104 60,103 61,102 62,103 63,104 64,103 65,102 66,101 67,100 68,101 69,100 70,101 71,100 72,99 73,98 74,99 75,100 76,99 77,100 78,101 79,100 80,101 81,102 82,103 83,102 84,103 85,102 86,101 87,102 88,103 89,104 90,103 91,102 92,103 93,104 94,103 95,104 96,105 97,104 98,105 99,104 100,105 101,106 102,107 103,108 104,107 105,106 106,105 107,104 108,103 109,104 110,103 111,104 112,105 113,104 114,105 115,106 116,105 117,106 118,107 119,108 120,109 121,108 122,107 123,106 124,107 125,106 126,105 127,104 128,105 129,106 130,105 131,106 132,105 133,104 134,103 135,102 136,103 137,102 138,103 139,104 140,103 141,102 142,103 143,104 144,105 145,104 146,103 147,104 148,105 149,106 150,105 151,104 152,103 153,104 154,105 155,106 156,107 157,108 158,109 159,110 160,111 161,110 162,109 163,108 164,109 165,110 166,111 167,110 168,111 169,110 170,111 171,112 172,111 173,110 174,109 175,110 176,111 177,110 178,109 179,110 180,111 181,110 182,111 183,112 184,111 185,112 186,113 187,114 188,113 189,114 190,115 191,114 192,113 193,114 194,115 195,116 196,117 197,116 198,115 199,114 200,113 201,114 202,115 203,114 204,115 205,116 206,117 207,116 208,117 209,116 210,117 211,118 212,117 213,116 214,115 215,114 216,115 217,114 218,115 219,114 220,113 221,114 222,113 223,112 224,111 225,110 226,109 227,108 228,107 229,106 230,105 231,104 232,103 233,102 234,103 235,102 236,103 237,102 238,103 239,104 240,103 241,102 242,101 243,102 244,101 245,102 246,101 247,102 248,103 249,102 250,103 251,104 252,105 253,106 254,105 255,104 256,105 257,104 258,103 259,104 260,103 261,104 262,103 263,102 264,101 265,102 266,103 267,102 268,101 269,100 270,101 271,102 272,103 273,104 274,103 275,102 276,101 277,100 278,99 279,98 280,99 281,100 282,101 283,100 284,99 285,98 286,97 287,96 288,95 289,96 290,95 291,96 292,95 293,96 294,95 295,96 296,95 297,94 298,93 299,94 300,95 301,96 302,97 303,98 304,97 305,96 306,97 307,98 308,97 309,98 310,97 311,96 312,97 313,98 314,97 315,96 316,95 317,96 318,95 319,94 320,93 321,94 322,95 323,96 324,97 325,96 326,95 327,94 328,93 329,92 330,93 331,94 332,95 333,96 334,97 335,96 336,95 337,96 338,95 339,94 340,95 341,94 342,93 343,92 344,91 345,90 346,91 347,92 348,93 349,92 350,93 351,92 352,93 353,92 354,91 355,90 356,91 357,90 358,91 359,92 360,93 361,92 362,91 363,90 364,91 365,92 366,91 367,90 368,89 369,88 370,89 371,88 372,89 373,88 374,89 375,88 376,89 377,90 378,89 379,90 380,91 381,92 382,93 383,94 384,95 385,94 386,95 387,94 388,93 389,94 390,95 391,94 392,93 393,92 394,93 395,94 396,95 397,94 398,95 399,96 400,95 400,200 " style="fill:rgb(86,125,28);stroke:rgb(0,25,0)"></polygon><polygon points="0,200 1,100 2,99 3,98 4,99 5,98 6,97 7,96 8,95 9,96 10,95 11,94 12,93 13,94 14,95 15,96 16,97 17,96 18,95 19,96 20,95 21,96 22,95 23,94 24,93 25,94 26,93 27,92 28,91 29,90 30,89 31,88 32,89 33,88 34,87 35,88 36,89 37,90 38,91 39,92 40,91 41,92 42,91 43,92 44,91 45,90 46,89 47,90 48,89 49,90 50,89 51,88 52,89 53,88 54,89 55,88 56,87 57,88 58,89 59,90 60,89 61,88 62,87 63,86 64,87 65,88 66,89 67,90 68,89 69,90 70,91 71,92 72,93 73,92 74,91 75,92 76,93 77,92 78,93 79,94 80,95 81,96 82,97 83,98 84,97 85,96 86,97 87,96 88,95 89,94 90,93 91,94 92,95 93,96 94,95 95,94 96,93 97,94 98,95 99,94 100,95 101,96 102,97 103,98 104,97 105,98 106,97 107,98 108,99 109,100 110,101 111,102 112,103 113,102 114,103 115,104 116,103 117,102 118,103 119,104 120,103 121,104 122,103 123,104 124,103 125,102 126,103 127,102 128,101 129,102 130,101 131,100 132,101 133,102 134,103 135,102 136,103 137,102 138,103 139,104 140,105 141,104 142,105 143,106 144,107 145,108 146,109 147,110 148,109 149,108 150,107 151,108 152,107 153,106 154,107 155,108 156,109 157,110 158,109 159,110 160,111 161,112 162,113 163,112 164,113 165,114 166,113 167,114 168,113 169,114 170,113 171,114 172,115 173,114 174,115 175,114 176,115 177,116 178,117 179,118 180,119 181,120 182,121 183,120 184,121 185,120 186,121 187,122 188,121 189,122 190,123 191,122 192,123 193,122 194,123 195,124 196,125 197,126 198,127 199,126 200,125 201,126 202,127 203,128 204,127 205,128 206,129 207,130 208,131 209,130 210,129 211,128 212,127 213,128 214,129 215,130 216,129 217,130 218,131 219,130 220,129 221,130 222,129 223,130 224,129 225,130 226,129 227,130 228,131 229,130 230,129 231,130 232,129 233,130 234,129 235,128 236,127 237,128 238,127 239,126 240,127 241,128 242,129 243,130 244,129 245,128 246,129 247,128 248,129 249,130 250,129 251,130 252,129 253,130 254,129 255,128 256,127 257,126 258,125 259,124 260,125 261,126 262,127 263,126 264,125 265,126 266,127 267,128 268,129 269,130 270,129 271,128 272,127 273,126 274,125 275,124 276,125 277,126 278,125 279,124 280,123 281,124 282,123 283,122 284,121 285,122 286,121 287,120 288,119 289,120 290,121 291,122 292,121 293,122 294,121 295,120 296,121 297,122 298,123 299,122 300,123 301,122 302,123 303,122 304,123 305,124 306,125 307,126 308,127 309,128 310,127 311,126 312,125 313,124 314,125 315,126 316,125 317,126 318,125 319,124 320,123 321,122 322,123 323,124 324,125 325,124 326,123 327,122 328,121 329,120 330,121 331,120 332,119 333,118 334,119 335,118 336,119 337,120 338,121 339,122 340,123 341,124 342,125 343,124 344,123 345,124 346,123 347,124 348,125 349,124 350,125 351,124 352,123 353,122 354,121 355,122 356,121 357,120 358,119 359,118 360,119 361,120 362,121 363,122 364,121 365,122 366,121 367,120 368,119 369,120 370,119 371,118 372,119 373,118 374,117 375,116 376,115 377,114 378,113 379,112 380,111 381,112 382,113 383,112 384,113 385,112 386,113 387,112 388,113 389,112 390,111 391,112 392,111 393,110 394,109 395,110 396,109 397,108 398,107 399,106 400,105 400,200 " style="fill:rgb(176,124,88);stroke:rgb(76,24,0)"></polygon><polygon points="0,200 1,100 2,101 3,100 4,101 5,100 6,101 7,102 8,103 9,104 10,103 11,102 12,103 13,102 14,103 15,102 16,103 17,104 18,103 19,104 20,105 21,106 22,107 23,108 24,107 25,106 26,105 27,104 28,105 29,104 30,105 31,106 32,107 33,108 34,109 35,110 36,109 37,110 38,109 39,110 40,111 41,110 42,109 43,110 44,109 45,110 46,111 47,112 48,113 49,114 50,115 51,116 52,115 53,116 54,117 55,116 56,115 57,116 58,117 59,116 60,115 61,114 62,113 63,114 64,115 65,114 66,113 67,114 68,115 69,114 70,113 71,114 72,115 73,114 74,113 75,114 76,115 77,114 78,113 79,114 80,113 81,114 82,113 83,112 84,113 85,114 86,113 87,114 88,115 89,114 90,115 91,116 92,117 93,118 94,119 95,118 96,117 97,118 98,119 99,120 100,119 101,120 102,119 103,118 104,117 105,116 106,115 107,114 108,113 109,112 110,113 111,114 112,115 113,114 114,115 115,114 116,115 117,116 118,115 119,114 120,113 121,114 122,115 123,114 124,115 125,114 126,113 127,114 128,115 129,116 130,115 131,116 132,115 133,114 134,113 135,112 136,113 137,112 138,111 139,110 140,109 141,108 142,107 143,108 144,107 145,108 146,107 147,108 148,107 149,106 150,107 151,106 152,107 153,106 154,105 155,106 156,107 157,108 158,109 159,110 160,109 161,110 162,111 163,110 164,111 165,110 166,111 167,112 168,113 169,112 170,111 171,110 172,109 173,108 174,107 175,106 176,107 177,108 178,107 179,108 180,107 181,106 182,107 183,106 184,107 185,108 186,107 187,106 188,107 189,106 190,107 191,106 192,105 193,106 194,107 195,108 196,107 197,106 198,107 199,106 200,105 201,106 202,107 203,108 204,107 205,108 206,109 207,108 208,109 209,110 210,111 211,112 212,113 213,114 214,113 215,112 216,111 217,112 218,113 219,114 220,115 221,114 222,115 223,114 224,113 225,114 226,115 227,114 228,113 229,112 230,111 231,110 232,109 233,108 234,107 235,106 236,105 237,106 238,107 239,108 240,109 241,108 242,109 243,110 244,111 245,112 246,113 247,114 248,113 249,114 250,113 251,114 252,115 253,116 254,117 255,116 256,115 257,114 258,115 259,116 260,115 261,114 262,115 263,116 264,115 265,116 266,117 267,116 268,117 269,116 270,115 271,114 272,115 273,114 274,113 275,114 276,113 277,112 278,113 279,112 280,113 281,114 282,113 283,114 284,113 285,114 286,115 287,114 288,113 289,114 290,113 291,114 292,115 293,116 294,117 295,118 296,119 297,118 298,119 299,118 300,117 301,118 302,117 303,116 304,117 305,116 306,115 307,114 308,115 309,114 310,113 311,114 312,115 313,114 314,115 315,114 316,115 317,114 318,113 319,114 320,115 321,114 322,113 323,114 324,113 325,112 326,113 327,114 328,115 329,114 330,115 331,116 332,117 333,118 334,119 335,120 336,119 337,118 338,119 339,120 340,119 341,118 342,117 343,116 344,115 345,116 346,117 347,116 348,117 349,116 350,117 351,116 352,117 353,118 354,119 355,120 356,119 357,120 358,121 359,120 360,119 361,118 362,119 363,120 364,119 365,118 366,117 367,118 368,119 369,118 370,117 371,116 372,117 373,116 374,115 375,116 376,117 377,116 378,117 379,118 380,117 381,118 382,117 383,118 384,117 385,118 386,117 387,118 388,119 389,118 390,119 391,118 392,119 393,118 394,119 395,120 396,119 397,118 398,119 399,118 400,117 400,200 " style="fill:rgb(120,74,173);stroke:rgb(20,0,73)"></polygon><polygon points="0,200 1,100 2,101 3,102 4,103 5,102 6,103 7,104 8,103 9,102 10,101 11,100 12,99 13,98 14,97 15,96 16,95 17,96 18,95 19,96 20,97 21,98 22,97 23,98 24,99 25,98 26,97 27,98 28,97 29,98 30,97 31,98 32,99 33,100 34,101 35,102 36,103 37,104 38,103 39,102 40,103 41,102 42,103 43,104 44,103 45,104 46,103 47,104 48,105 49,106 50,105 51,104 52,103 53,102 54,103 55,102 56,103 57,102 58,103 59,104 60,105 61,106 62,107 63,108 64,109 65,110 66,109 67,108 68,109 69,110 70,109 71,110 72,111 73,110 74,111 75,112 76,113 77,114 78,115 79,116 80,115 81,116 82,115 83,116 84,115 85,114 86,113 87,114 88,113 89,112 90,111 91,112 92,111 93,112 94,113 95,114 96,113 97,112 98,111 99,112 100,111 101,112 102,111 103,110 104,109 105,110 106,111 107,112 108,113 109,114 110,115 111,114 112,115 113,114 114,113 115,112 116,113 117,112 118,113 119,112 120,113 121,114 122,113 123,114 124,115 125,116 126,115 127,116 128,115 129,114 130,115 131,114 132,115 133,116 134,115 135,116 136,115 137,116 138,117 139,116 140,115 141,116 142,115 143,114 144,115 145,116 146,117 147,116 148,117 149,118 150,117 151,116 152,115 153,114 154,113 155,114 156,113 157,112 158,111 159,110 160,111 161,112 162,113 163,112 164,111 165,110 166,111 167,112 168,113 169,112 170,113 171,112 172,111 173,110 174,111 175,112 176,113 177,112 178,111 179,112 180,113 181,114 182,113 183,114 184,115 185,116 186,117 187,116 188,115 189,114 190,115 191,116 192,115 193,114 194,115 195,114 196,115 197,116 198,115 199,116 200,117 201,116 202,115 203,116 204,117 205,118 206,119 207,118 208,119 209,120 210,121 211,122 212,121 213,120 214,119 215,120 216,121 217,120 218,121 219,122 220,121 221,122 222,123 223,122 224,123 225,122 226,123 227,122 228,121 229,120 230,121 231,122 232,121 233,122 234,121 235,120 236,119 237,118 238,117 239,118 240,119 241,120 242,119 243,118 244,117 245,118 246,117 247,116 248,117 249,116 250,117 251,116 252,115 253,114 254,113 255,114 256,115 257,114 258,113 259,112 260,111 261,112 262,111 263,112 264,113 265,114 266,115 267,114 268,113 269,114 270,113 271,112 272,111 273,112 274,111 275,110 276,111 277,110 278,111 279,110 280,111 281,110 282,111 283,110 284,111 285,110 286,111 287,112 288,111 289,110 290,109 291,110 292,109 293,108 294,107 295,106 296,105 297,106 298,107 299,108 300,109 301,110 302,109 303,108 304,107 305,108 306,109 307,110 308,109 309,108 310,109 311,110 312,111 313,110 314,111 315,110 316,111 317,112 318,111 319,110 320,109 321,108 322,109 323,108 324,107 325,106 326,107 327,108 328,107 329,108 330,107 331,108 332,109 333,108 334,107 335,106 336,105 337,106 338,105 339,104 340,103 341,102 342,101 343,100 344,99 345,98 346,97 347,96 348,95 349,96 350,97 351,96 352,95 353,94 354,93 355,94 356,95 357,94 358,95 359,94 360,93 361,92 362,91 363,92 364,93 365,92 366,93 367,92 368,93 369,92 370,91 371,92 372,93 373,92 374,93 375,94 376,95 377,96 378,97 379,96 380,97 381,96 382,97 383,98 384,99 385,100 386,99 387,98 388,97 389,96 390,95 391,96 392,95 393,94 394,93 395,92 396,93 397,94 398,93 399,92 400,91 400,200 " style="fill:rgb(57,236,123);stroke:rgb(0,136,23)"></polygon><polygon points="0,200 1,100 2,99 3,100 4,101 5,100 6,99 7,98 8,99 9,100 10,99 11,100 12,101 13,100 14,99 15,98 16,97 17,98 18,99 19,98 20,99 21,98 22,99 23,98 24,97 25,96 26,97 27,98 28,99 29,98 30,99 31,100 32,99 33,100 34,101 35,100 36,99 37,98 38,99 39,100 40,101 41,102 42,103 43,104 44,103 45,104 46,105 47,104 48,105 49,104 50,105 51,106 52,107 53,108 54,109 55,110 56,111 57,112 58,111 59,110 60,109 61,108 62,109 63,110 64,109 65,108 66,107 67,106 68,105 69,106 70,105 71,106 72,105 73,104 74,103 75,102 76,103 77,102 78,103 79,102 80,101 81,102 82,101 83,100 84,101 85,102 86,101 87,100 88,101 89,100 90,101 91,100 92,101 93,102 94,101 95,100 96,99 97,100 98,101 99,100 100,101 101,102 102,101 103,102 104,101 105,102 106,103 107,102 108,101 109,102 110,101 111,100 112,99 113,100 114,99 115,100 116,101 117,100 118,99 119,100 120,99 121,100 122,99 123,98 124,99 125,100 126,99 127,100 128,101 129,102 130,101 131,102 132,103 133,104 134,103 135,104 136,105 137,106 138,105 139,106 140,105 141,106 142,105 143,106 144,107 145,108 146,109 147,110 148,109 149,108 150,107 151,106 152,105 153,106 154,105 155,104 156,103 157,102 158,101 159,102 160,103 161,104 162,103 163,104 164,103 165,102 166,101 167,100 168,101 169,100 170,99 171,100 172,99 173,100 174,99 175,98 176,99 177,100 178,101 179,100 180,101 181,102 182,101 183,100 184,101 185,100 186,99 187,98 188,97 189,98 190,99 191,100 192,99 193,98 194,97 195,96 196,97 197,96 198,95 199,94 200,95 201,96 202,95 203,94 204,93 205,94 206,95 207,96 208,95 209,94 210,95 211,94 212,93 213,94 214,95 215,94 216,93 217,94 218,93 219,94 220,93 221,94 222,95 223,94 224,93 225,92 226,91 227,92 228,91 229,92 230,93 231,94 232,95 233,94 234,93 235,92 236,91 237,90 238,91 239,92 240,91 241,92 242,93 243,94 244,95 245,96 246,97 247,96 248,95 249,96 250,95 251,96 252,97 253,96 254,95 255,94 256,95 257,96 258,95 259,96 260,95 261,94 262,93 263,92 264,91 265,92 266,91 267,90 268,91 269,90 270,89 271,90 272,91 273,90 274,91 275,92 276,93 277,94 278,93 279,92 280,93 281,94 282,95 283,94 284,93 285,92 286,93 287,94 288,95 289,94 290,95 291,94 292,95 293,94 294,95 295,94 296,95 297,96 298,97 299,96 300,97 301,98 302,97 303,98 304,99 305,100 306,99 307,98 308,99 309,98 310,97 311,96 312,95 313,94 314,95 315,94 316,93 317,92 318,91 319,90 320,91 321,90 322,89 323,88 324,89 325,90 326,89 327,88 328,87 329,88 330,87 331,86 332,87 333,88 334,89 335,90 336,91 337,90 338,91 339,92 340,93 341,94 342,95 343,96 344,97 345,98 346,97 347,98 348,97 349,98 350,97 351,96 352,97 353,98 354,99 355,98 356,97 357,98 358,97 359,98 360,99 361,100 362,101 363,102 364,101 365,100 366,101 367,102 368,101 369,100 370,99 371,98 372,99 373,98 374,99 375,98 376,97 377,98 378,97 379,98 380,99 381,100 382,99 383,100 384,101 385,102 386,101 387,102 388,101 389,102 390,101 391,100 392,99 393,98 394,97 395,96 396,97 397,96 398,97 399,96 400,95 400,200 " style="fill:rgb(6,168,232);stroke:rgb(0,68,132)"></polygon><polygon points="0,200 1,100 2,101 3,102 4,101 5,100 6,99 7,100 8,101 9,102 10,101 11,100 12,101 13,100 14,101 15,100 16,101 17,102 18,101 19,100 20,99 21,98 22,97 23,96 24,97 25,98 26,97 27,98 28,99 29,100 30,99 31,98 32,97 33,98 34,97 35,98 36,99 37,98 38,97 39,98 40,97 41,98 42,99 43,98 44,99 45,100 46,99 47,98 48,97 49,96 50,97 51,96 52,97 53,96 54,97 55,96 56,97 57,98 58,97 59,98 60,97 61,96 62,97 63,96 64,95 65,94 66,93 67,92 68,93 69,92 70,91 71,92 72,91 73,92 74,91 75,92 76,91 77,90 78,89 79,88 80,89 81,90 82,91 83,92 84,91 85,90 86,89 87,88 88,87 89,86 90,85 91,84 92,83 93,84 94,83 95,82 96,81 97,82 98,81 99,82 100,83 101,82 102,81 103,82 104,83 105,84 106,83 107,84 108,83 109,82 110,83 111,82 112,83 113,84 114,85 115,84 116,85 117,86 118,85 119,86 120,85 121,84 122,85 123,86 124,87 125,88 126,89 127,88 128,87 129,88 130,89 131,88 132,89 133,90 134,91 135,90 136,89 137,88 138,87 139,88 140,89 141,90 142,89 143,90 144,91 145,90 146,89 147,90 148,89 149,88 150,87 151,88 152,89 153,90 154,89 155,88 156,89 157,90 158,89 159,90 160,91 161,92 162,93 163,94 164,93 165,92 166,91 167,92 168,93 169,94 170,93 171,92 172,91 173,92 174,91 175,92 176,91 177,90 178,89 179,90 180,89 181,90 182,91 183,90 184,91 185,90 186,91 187,90 188,89 189,90 190,91 191,90 192,89 193,90 194,89 195,88 196,89 197,90 198,91 199,90 200,91 201,90 202,89 203,90 204,89 205,88 206,89 207,90 208,91 209,92 210,91 211,90 212,89 213,88 214,87 215,88 216,87 217,88 218,89 219,90 220,89 221,90 222,91 223,92 224,93 225,94 226,95 227,94 228,93 229,92 230,91 231,92 232,93 233,92 234,93 235,94 236,95 237,94 238,95 239,94 240,95 241,96 242,95 243,94 244,93 245,92 246,91 247,92 248,93 249,94 250,95 251,96 252,97 253,96 254,97 255,98 256,99 257,98 258,97 259,96 260,97 261,96 262,95 263,96 264,97 265,98 266,97 267,98 268,99 269,100 270,101 271,100 272,99 273,98 274,97 275,96 276,95 277,96 278,97 279,96 280,95 281,96 282,95 283,96 284,95 285,96 286,97 287,96 288,97 289,98 290,97 291,96 292,95 293,94 294,95 295,94 296,95 297,96 298,97 299,96 300,97 301,96 302,95 303,96 304,95 305,96 306,97 307,98 308,99 309,100 310,99 311,98 312,99 313,100 314,101 315,100 316,101 317,100 318,99 319,98 320,99 321,98 322,99 323,100 324,99 325,98 326,97 327,96 328,95 329,96 330,95 331,94 332,93 333,94 334,93 335,94 336,93 337,92 338,91 339,92 340,91 341,90 342,91 343,92 344,93 345,94 346,95 347,96 348,97 349,98 350,99 351,100 352,101 353,102 354,101 355,100 356,99 357,98 358,97 359,98 360,99 361,98 362,97 363,98 364,97 365,96 366,97 367,96 368,97 369,96 370,97 371,96 372,97 373,96 374,95 375,96 376,97 377,96 378,95 379,94 380,93 381,94 382,93 383,94 384,93 385,94 386,93 387,94 388,95 389,96 390,95 391,96 392,95 393,94 394,93 395,92 396,93 397,92 398,91 399,90 400,91 400,200 " style="fill:rgb(40,133,239);stroke:rgb(0,33,139)"></polygon><polygon points="0,200 1,100 2,101 3,100 4,99 5,100 6,99 7,100 8,101 9,100 10,101 11,102 12,101 13,100 14,101 15,100 16,99 17,100 18,99 19,100 20,99 21,100 22,101 23,100 24,101 25,100 26,99 27,98 28,99 29,100 30,101 31,100 32,101 33,100 34,99 35,98 36,99 37,98 38,99 39,98 40,97 41,98 42,99 43,98 44,99 45,100 46,101 47,102 48,103 49,102 50,103 51,102 52,103 53,104 54,105 55,104 56,105 57,104 58,103 59,104 60,103 61,104 62,103 63,102 64,101 65,100 66,101 67,100 68,99 69,98 70,99 71,98 72,97 73,98 74,99 75,98 76,97 77,98 78,99 79,98 80,99 81,100 82,101 83,100 84,99 85,100 86,99 87,100 88,101 89,102 90,103 91,104 92,103 93,104 94,103 95,102 96,101 97,100 98,101 99,102 100,103 101,104 102,103 103,104 104,103 105,102 106,101 107,100 108,101 109,100 110,99 111,100 112,101 113,100 114,99 115,100 116,99 117,100 118,99 119,100 120,101 121,102 122,103 123,104 124,105 125,104 126,105 127,104 128,103 129,104 130,105 131,106 132,107 133,106 134,105 135,106 136,105 137,106 138,105 139,104 140,105 141,104 142,105 143,106 144,107 145,106 146,105 147,106 148,105 149,106 150,105 151,106 152,107 153,108 154,107 155,106 156,107 157,108 158,107 159,108 160,109 161,110 162,111 163,110 164,111 165,110 166,109 167,110 168,111 169,110 170,109 171,110 172,111 173,110 174,109 175,110 176,109 177,108 178,107 179,108 180,107 181,108 182,107 183,106 184,105 185,106 186,105 187,104 188,105 189,104 190,105 191,104 192,105 193,104 194,105 195,106 196,107 197,106 198,105 199,104 200,105 201,106 202,107 203,106 204,107 205,106 206,107 207,108 208,109 209,108 210,109 211,110 212,109 213,108 214,107 215,106 216,107 217,106 218,107 219,108 220,107 221,108 222,107 223,108 224,107 225,106 226,107 227,108 228,109 229,108 230,109 231,110 232,109 233,110 234,109 235,110 236,109 237,110 238,111 239,112 240,111 241,110 242,111 243,110 244,111 245,112 246,113 247,114 248,113 249,114 250,115 251,114 252,113 253,114 254,113 255,114 256,115 257,116 258,115 259,116 260,115 261,114 262,113 263,112 264,113 265,114 266,113 267,112 268,113 269,114 270,115 271,114 272,115 273,116 274,115 275,116 276,117 277,118 278,117 279,118 280,119 281,118 282,119 283,118 284,119 285,120 286,119 287,118 288,119 289,120 290,121 291,120 292,121 293,120 294,121 295,122 296,123 297,124 298,123 299,124 300,123 301,122 302,123 303,122 304,121 305,122 306,123 307,122 308,121 309,120 310,121 311,120 312,121 313,122 314,123 315,124 316,123 317,124 318,123 319,122 320,121 321,122 322,121 323,122 324,121 325,122 326,121 327,120 328,119 329,118 330,119 331,120 332,121 333,120 334,121 335,122 336,121 337,120 338,121 339,122 340,121 341,120 342,119 343,118 344,117 345,118 346,119 347,120 348,119 349,120 350,121 351,120 352,119 353,120 354,119 355,120 356,121 357,120 358,119 359,118 360,117 361,118 362,119 363,120 364,119 365,120 366,119 367,120 368,119 369,118 370,117 371,118 372,119 373,118 374,117 375,118 376,117 377,118 378,117 379,118 380,119 381,118 382,117 383,118 384,117 385,118 386,117 387,116 388,117 389,118 390,117 391,116 392,117 393,116 394,115 395,116 396,115 397,116 398,117 399,116 400,115 400,200 " style="fill:rgb(86,226,233);stroke:rgb(0,126,133)"></polygon><polygon points="0,200 1,100 2,101 3,100 4,99 5,100 6,101 7,102 8,101 9,102 10,103 11,104 12,105 13,106 14,105 15,104 16,105 17,106 18,107 19,106 20,105 21,106 22,107 23,108 24,107 25,106 26,107 27,106 28,105 29,106 30,107 31,106 32,107 33,108 34,109 35,108 36,107 37,108 38,109 39,108 40,107 41,108 42,107 43,106 44,105 45,106 46,107 47,106 48,105 49,106 50,105 51,104 52,105 53,104 54,103 55,104 56,105 57,104 58,105 59,106 60,105 61,104 62,105 63,106 64,107 65,108 66,107 67,108 68,109 69,108 70,107 71,106 72,107 73,108 74,109 75,110 76,111 77,110 78,109 79,110 80,111 81,110 82,109 83,108 84,109 85,110 86,109 87,108 88,107 89,108 90,107 91,108 92,107 93,108 94,109 95,110 96,111 97,110 98,111 99,112 100,113 101,114 102,115 103,114 104,113 105,112 106,113 107,114 108,115 109,116 110,117 111,118 112,119 113,118 114,117 115,118 116,117 117,116 118,115 119,114 120,115 121,116 122,117 123,118 124,119 125,118 126,117 127,116 128,115 129,116 130,115 131,114 132,115 133,116 134,115 135,116 136,115 137,116 138,117 139,118 140,117 141,118 142,119 143,118 144,119 145,120 146,121 147,120 148,119 149,120 150,119 151,118 152,117 153,116 154,115 155,116 156,115 157,114 158,115 159,116 160,117 161,116 162,115 163,116 164,115 165,114 166,115 167,114 168,115 169,114 170,115 171,116 172,115 173,114 174,115 175,114 176,115 177,114 178,113 179,112 180,113 181,114 182,115 183,114 184,113 185,112 186,113 187,114 188,115 189,116 190,115 191,116 192,117 193,118 194,117 195,118 196,117 197,116 198,117 199,116 200,117 201,118 202,119 203,118 204,119 205,118 206,119 207,120 208,119 209,118 210,119 211,120 212,121 213,122 214,121 215,122 216,121 217,122 218,121 219,120 220,119 221,120 222,121 223,122 224,121 225,122 226,121 227,122 228,123 229,122 230,123 231,124 232,125 233,126 234,125 235,126 236,127 237,126 238,125 239,126 240,125 241,126 242,125 243,126 244,127 245,128 246,129 247,128 248,127 249,128 250,127 251,128 252,129 253,128 254,129 255,128 256,127 257,126 258,125 259,124 260,123 261,122 262,123 263,122 264,121 265,122 266,123 267,122 268,121 269,122 270,121 271,122 272,123 273,124 274,125 275,126 276,127 277,126 278,125 279,126 280,127 281,128 282,127 283,126 284,127 285,126 286,125 287,126 288,125 289,124 290,125 291,126 292,127 293,128 294,129 295,130 296,129 297,130 298,129 299,130 300,129 301,130 302,131 303,132 304,131 305,132 306,133 307,134 308,135 309,134 310,135 311,134 312,133 313,134 314,133 315,134 316,135 317,136 318,135 319,136 320,135 321,136 322,135 323,136 324,137 325,136 326,135 327,136 328,137 329,138 330,139 331,138 332,137 333,136 334,135 335,134 336,133 337,132 338,133 339,132 340,131 341,132 342,133 343,132 344,133 345,132 346,133 347,134 348,133 349,132 350,133 351,132 352,133 353,134 354,135 355,134 356,135 357,136 358,137 359,136 360,135 361,134 362,135 363,134 364,135 365,136 366,135 367,136 368,135 369,136 370,137 371,138 372,139 373,138 374,139 375,138 376,137 377,136 378,135 379,136 380,135 381,136 382,137 383,138 384,137 385,136 386,135 387,136 388,137 389,136 390,135 391,134 392,133 393,134 394,135 395,134 396,135 397,136 398,137 399,136 400,137 400,200 " style="fill:rgb(6,6,158);stroke:rgb(0,0,58)"></polygon></svg>